<?xml version="1.0" standalone="no"?>
<!DOCTYPE svg PUBLIC "-//W3C//DTD SVG 20010904//EN"
 "http://www.w3.org/TR/2001/REC-SVG-20010904/DTD/svg10.dtd">
<svg version="1.0" xmlns="http://www.w3.org/2000/svg"
 width="500.000000pt" height="500.000000pt" viewBox="0 0 500.000000 500.000000"
 preserveAspectRatio="xMidYMid meet">
<metadata>
Created by potrace 1.14, written by Peter Selinger 2001-2017
</metadata>
<g transform="translate(0.000000,500.000000) scale(0.100000,-0.100000)"
fill="#000000" stroke="none">
<path d="M0 2500 l0 -2500 2500 0 2500 0 0 2500 0 2500 -2500 0 -2500 0 0
-2500z m2206 455 c217 -561 394 -1021 394 -1022 0 -2 -109 -3 -242 -3 -256 1
-286 5 -351 50 -54 37 -80 82 -137 229 l-53 141 -312 0 -312 0 -83 -215 c-67
-173 -86 -215 -101 -215 -11 0 -19 6 -19 14 0 7 172 456 381 997 210 541 386
999 392 1017 8 24 16 32 30 30 16 -2 89 -182 413 -1023z m1429 1010 c189 -49
346 -234 362 -427 12 -158 -36 -288 -151 -403 -52 -52 -88 -78 -137 -99 l-65
-29 78 -39 c166 -83 285 -255 304 -440 22 -216 -109 -439 -317 -538 -48 -22
-112 -44 -149 -50 -36 -5 -239 -10 -457 -10 l-393 0 0 905 c0 887 0 905 21
959 24 66 106 146 171 169 64 23 648 24 733 2z m-342 -2302 c-430 -2 -1136 -2
-1570 0 -433 1 -81 2 782 2 864 0 1218 -1 788 -2z m695 -282 c103 -73 101
-267 -3 -331 -146 -90 -302 37 -265 216 12 59 38 97 84 126 43 27 139 21 184
-11z m-2823 9 c32 -12 59 -71 50 -111 -4 -16 -18 -38 -32 -49 l-25 -20 22 -18
c18 -15 24 -32 29 -90 5 -52 4 -72 -5 -72 -7 0 -13 25 -16 66 -6 92 -22 104
-134 104 l-84 0 0 -85 c0 -69 -3 -85 -15 -85 -13 0 -15 27 -15 185 l0 185 99
0 c55 0 111 -4 126 -10z m727 -173 c39 -98 68 -181 65 -184 -11 -11 -24 8 -42
61 l-19 56 -92 0 -91 0 -22 -60 c-13 -35 -28 -60 -36 -60 -11 0 -6 20 19 78
18 42 52 126 76 185 30 76 47 107 57 105 9 -2 43 -73 85 -181z m814 167 c55
-26 79 -76 79 -164 0 -83 -18 -126 -68 -164 -23 -17 -46 -22 -123 -24 l-94 -4
0 186 0 186 86 0 c58 0 97 -5 120 -16z m564 -169 c0 -158 -2 -185 -15 -185
-13 0 -15 27 -15 185 0 158 2 185 15 185 13 0 15 -27 15 -185z"/>
<path d="M1773 3870 c-11 -28 16 -100 348 -957 197 -510 363 -931 368 -936 11
-11 45 -1 37 11 -2 4 -167 433 -366 953 -199 519 -365 947 -369 951 -4 4 -12
-6 -18 -22z"/>
<path d="M1726 3755 c-3 -9 -6 -24 -6 -33 0 -9 152 -406 338 -882 296 -756
341 -865 360 -868 12 -2 22 -1 22 2 0 11 -692 1782 -699 1789 -5 5 -11 1 -15
-8z"/>
<path d="M1680 3624 c-10 -26 16 -99 281 -779 161 -412 303 -778 317 -812 18
-47 29 -63 43 -63 10 0 19 4 19 9 0 10 -639 1663 -646 1670 -2 2 -8 -9 -14
-25z"/>
<path d="M1633 3503 c-9 -25 23 -114 282 -778 218 -558 297 -750 309 -750 9 0
17 4 17 8 2 10 -582 1529 -591 1540 -4 5 -12 -4 -17 -20z"/>
<path d="M1592 3381 c-10 -27 15 -95 252 -712 212 -551 267 -685 284 -692 12
-6 24 -8 27 -6 4 4 -540 1428 -549 1436 -2 2 -8 -9 -14 -26z"/>
<path d="M1533 3251 c-9 -26 10 -81 201 -573 211 -543 248 -628 287 -649 12
-6 20 -7 18 -1 -116 304 -486 1252 -489 1252 -3 0 -11 -13 -17 -29z"/>
<path d="M1354 2783 l-142 -368 286 -3 c157 -1 286 -1 288 1 5 4 -279 737
-285 737 -3 0 -70 -165 -147 -367z"/>
<path d="M2910 3919 c-55 -25 -95 -62 -123 -114 l-22 -40 -3 -892 -2 -893 317
0 318 0 -31 25 c-17 13 -48 50 -70 81 l-39 56 -3 899 -2 899 -148 0 c-126 0
-153 -3 -192 -21z"/>
<path d="M3290 3485 l0 -455 108 0 c140 0 212 14 293 56 220 116 318 372 220
579 -59 126 -196 236 -329 264 -29 6 -107 11 -172 11 l-120 0 0 -455z"/>
<path d="M3287 2973 c-4 -3 -7 -171 -7 -372 0 -390 4 -427 51 -511 26 -47 95
-97 147 -106 97 -18 253 44 346 139 162 165 196 371 96 573 -69 141 -215 248
-370 273 -72 12 -253 15 -263 4z"/>
<path d="M3820 1371 c-76 -40 -106 -168 -58 -252 23 -41 84 -79 128 -79 44 0
105 38 128 79 28 50 30 141 3 191 -39 74 -127 101 -201 61z"/>
<path d="M970 1300 l0 -80 85 0 c78 0 88 2 110 25 35 34 34 86 -1 114 -22 17
-41 21 -110 21 l-84 0 0 -80z"/>
<path d="M1802 1350 c-6 -14 -24 -60 -40 -102 l-30 -78 79 0 c43 0 79 1 79 3
0 1 -18 47 -39 102 -36 91 -41 97 -49 75z"/>
<path d="M2520 1215 l0 -165 68 0 c124 0 177 51 177 170 0 117 -47 160 -174
160 l-71 0 0 -165z"/>
</g>
</svg>
